# xmcd
#
# Track frame offsets: 
#        150
#        13842
#        27765
#        41002
#        53151
#        66930
#        83114
#        99785
#        110598
#        126087
#        138516
#        152307
#        167702
#        181773
#        194975
#
# Disc length: 2714 seconds
#
# Revision: 0
# Processed by: cddbd v1.5.2PL0 Copyright (c) Steve Scherf et al.
# Submitted via: ExactAudioCopy v1.0b3
#
DISCID=c40a980f
DTITLE=Miss T and the Mad Tubes - She's That Gorgeous
DYEAR=1900
DGENRE=Boogie-Woogie
TTITLE0=As Long As I'm Moving
TTITLE1=If It's News to You
TTITLE2=Just Like A Bird
TTITLE3=Voodoo Voodoo
TTITLE4=She's That Gorgeous
TTITLE5=Mama, He tTreats Your Daugther Mean
TTITLE6=The Fish
TTITLE7=Bags And Purses
TTITLE8=T'aint Whatcha Say It's Whatcha Do
TTITLE9=My Easing
TTITLE10=I Miss You So
TTITLE11=Till The Well Runs Dry
TTITLE12=Palm Of Your Hand
TTITLE13=Messed Up Living
TTITLE14=This Little Girl's Gone Rockin'
EXTD=
EXTT0=
EXTT1=
EXTT2=
EXTT3=
EXTT4=
EXTT5=
EXTT6=
EXTT7=
EXTT8=
EXTT9=
EXTT10=
EXTT11=
EXTT12=
EXTT13=
EXTT14=
PLAYORDER=
